<svg width="130" height="122" viewBox="0 0 130 122" fill="none" xmlns="http://www.w3.org/2000/svg">
  <style>
    :root {
      --brace-light: #22c55e;      /* Primary color */
      --lightning-light: #F5A623;  /* Accent color */
      --brace-dark: #4ade80;       /* Lighter green for dark mode */
      --lightning-dark: #facc15;   /* Brighter yellow for dark mode */
    }
    
    @media (prefers-color-scheme: dark) {
      .brace { fill: var(--brace-dark) }
      .lightning { fill: var(--lightning-dark) }
    }
    
    @media (prefers-color-scheme: light) {
      .brace { fill: var(--brace-light) }
      .lightning { fill: var(--lightning-light) }
    }
  </style>
  <path class="brace" d="M3.69318 66.4602V62.0568C7.64678 62.0568 10.4048 61.2282 11.9673 59.571C13.5535 57.9138 14.3466 55.1439 14.3466 51.2614V39.8977C14.3466 36.6307 14.6544 33.8016 15.2699 31.4105C15.9091 29.0194 16.9389 27.0426 18.3594 25.4801C19.7798 23.9176 21.6738 22.7576 24.0412 22C26.4086 21.2424 29.3324 20.8636 32.8125 20.8636V27.8239C30.0663 27.8239 27.9001 28.25 26.3139 29.1023C24.7514 29.9545 23.6387 31.2803 22.9759 33.0795C22.3366 34.8551 22.017 37.1278 22.017 39.8977V54.1023C22.017 55.9489 21.7685 57.6297 21.2713 59.1449C20.7978 60.66 19.91 61.9621 18.608 63.0511C17.3059 64.1402 15.4474 64.9806 13.0327 65.5724C10.6416 66.1643 7.52841 66.4602 3.69318 66.4602ZM32.8125 111.773C29.3324 111.773 26.4086 111.394 24.0412 110.636C21.6738 109.879 19.7798 108.719 18.3594 107.156C16.9389 105.594 15.9091 103.617 15.2699 101.226C14.6544 98.8348 14.3466 96.0057 14.3466 92.7386V81.375C14.3466 77.4924 13.5535 74.7225 11.9673 73.0653C10.4048 71.4081 7.64678 70.5795 3.69318 70.5795V66.1761C7.52841 66.1761 10.6416 66.4721 13.0327 67.0639C15.4474 67.6558 17.3059 68.4962 18.608 69.5852C19.91 70.6742 20.7978 71.9763 21.2713 73.4915C21.7685 75.0066 22.017 76.6875 22.017 78.5341V92.7386C22.017 95.5085 22.3366 97.7813 22.9759 99.5568C23.6387 101.332 24.7514 102.646 26.3139 103.499C27.9001 104.375 30.0663 104.812 32.8125 104.812V111.773ZM3.69318 70.5795V62.0568H12.0739V70.5795H3.69318Z"/>
  <path class="brace" d="M125.528 66.1761V70.5795C121.575 70.5795 118.805 71.4081 117.219 73.0653C115.656 74.7225 114.875 77.4924 114.875 81.375V92.7386C114.875 96.0057 114.555 98.8348 113.916 101.226C113.301 103.617 112.283 105.594 110.862 107.156C109.442 108.719 107.548 109.879 105.18 110.636C102.813 111.394 99.8892 111.773 96.4091 111.773V104.812C99.1553 104.812 101.31 104.375 102.872 103.499C104.458 102.646 105.571 101.332 106.21 99.5568C106.873 97.7813 107.205 95.5085 107.205 92.7386V78.5341C107.205 76.6875 107.441 75.0066 107.915 73.4915C108.412 71.9763 109.312 70.6742 110.614 69.5852C111.916 68.4962 113.762 67.6558 116.153 67.0639C118.568 66.4721 121.693 66.1761 125.528 66.1761ZM96.4091 20.8636C99.8892 20.8636 102.813 21.2424 105.18 22C107.548 22.7576 109.442 23.9176 110.862 25.4801C112.283 27.0426 113.301 29.0194 113.916 31.4105C114.555 33.8016 114.875 36.6307 114.875 39.8977V51.2614C114.875 55.1439 115.656 57.9138 117.219 59.571C118.805 61.2282 121.575 62.0568 125.528 62.0568V66.4602C121.693 66.4602 118.568 66.1643 116.153 65.5724C113.762 64.9806 111.916 64.1402 110.614 63.0511C109.312 61.9621 108.412 60.66 107.915 59.1449C107.441 57.6297 107.205 55.9489 107.205 54.1023V39.8977C107.205 37.1278 106.873 34.8551 106.21 33.0795C105.571 31.2803 104.458 29.9545 102.872 29.1023C101.31 28.25 99.1553 27.8239 96.4091 27.8239V20.8636ZM125.528 62.0568V70.5795H117.148V62.0568H125.528Z"/>
  <path class="lightning" d="M58.8461 15L49.3517 67.5153H59.9011L49 122L77.8353 57.6687H67.6374L81 15H58.8461Z"/>
</svg>